<svg xmlns="http://www.w3.org/2000/svg" viewBox="0 0 300 300" style="enable-background:new 0 0 300 300" xml:space="preserve"><path d="M149.38 267.32c-2.29-2.17-15.95-15.65-21.5-33.42l-.23-.74-.58.52c-13.95 12.47-33.14 16.96-36.27 17.62-.9-3.02-5.99-21.53-1.91-39.69l.17-.76-.76.15c-4.18.87-8.7 1.31-13.43 1.31-13.21 0-24.5-3.44-26.79-4.19.73-3.06 5.57-21.64 18.19-35.33l.53-.57-.74-.24c-17.79-5.85-31.25-20.22-33.39-22.6 2.17-2.29 15.65-15.95 33.42-21.5l.74-.23-.52-.58C53.85 113.12 49.37 93.93 48.7 90.8c2.17-.65 12.39-3.49 24.66-3.49 5.32 0 10.38.53 15.03 1.58l.76.17-.15-.76c-3.83-18.32 1.89-37.18 2.88-40.22 3.06.73 21.64 5.57 35.33 18.19l.57.53.24-.74c5.84-17.78 20.22-31.25 22.6-33.39 2.29 2.17 15.95 15.65 21.5 33.42l.23.74.58-.52c13.95-12.47 33.14-16.95 36.27-17.62.9 3.02 5.99 21.53 1.91 39.69l-.17.76.76-.14c4.18-.87 8.7-1.31 13.43-1.31 13.2 0 24.49 3.44 26.79 4.19-.73 3.06-5.57 21.64-18.19 35.33l-.53.57.74.24c17.79 5.85 31.25 20.22 33.39 22.6-2.17 2.29-15.65 15.95-33.42 21.5l-.74.23.52.58c12.47 13.95 16.96 33.14 17.62 36.27-2.17.65-12.39 3.49-24.66 3.49-5.32 0-10.38-.53-15.03-1.58l-.76-.17.16.76c3.83 18.32-1.89 37.18-2.88 40.22-3.07-.73-21.64-5.57-35.33-18.19l-.57-.53-.24.74c-5.86 17.77-20.24 31.25-22.62 33.38z" style="fill:#0071bc"/><path d="M150.61 33.36c3.02 2.92 15.74 15.93 21.03 32.89l.46 1.48 1.16-1.04c13.3-11.89 31.42-16.47 35.59-17.4 1.16 4.04 5.67 21.67 1.77 39l-.34 1.52 1.52-.32c4.14-.87 8.63-1.3 13.33-1.3 12.43 0 23.16 3.07 26.19 4.02-1.02 4.08-5.94 21.61-17.96 34.66l-1.05 1.14 1.48.49c16.95 5.57 29.97 18.97 32.86 22.12-2.92 3.02-15.93 15.74-32.89 21.03l-1.48.46 1.04 1.16c11.89 13.3 16.47 31.42 17.4 35.59-2.87.82-12.56 3.34-24.08 3.34-5.28 0-10.3-.53-14.92-1.56l-1.52-.34.32 1.52c3.65 17.46-1.44 35.44-2.72 39.52-4.08-1.02-21.61-5.94-34.66-17.96l-1.14-1.05-.49 1.48c-5.57 16.95-18.97 29.97-22.12 32.86-3.02-2.92-15.74-15.93-21.03-32.89l-.46-1.48-1.16 1.04c-13.3 11.89-31.42 16.47-35.59 17.4-1.16-4.05-5.66-21.69-1.77-39l.34-1.52-1.52.32c-4.14.87-8.63 1.3-13.33 1.3-12.43 0-23.16-3.07-26.19-4.02 1.02-4.08 5.94-21.61 17.96-34.66l1.05-1.14-1.48-.49c-16.95-5.57-29.97-18.97-32.86-22.12 2.92-3.02 15.93-15.74 32.89-21.03l1.48-.46-1.04-1.16c-11.89-13.3-16.47-31.42-17.4-35.59 2.87-.82 12.56-3.34 24.08-3.34 5.28 0 10.3.53 14.92 1.57l1.52.34-.32-1.52c-3.65-17.46 1.44-35.44 2.72-39.52 4.08 1.02 21.61 5.94 34.66 17.96l1.14 1.05.49-1.48c5.57-16.95 18.97-29.98 22.12-32.87m.02-1.36s-16.61 14.23-23.08 33.91c-15.17-13.98-36-18.42-36-18.42s-7.27 20.64-3.04 40.91c-5.15-1.16-10.31-1.59-15.14-1.59-14.03 0-25.24 3.64-25.24 3.64s4.02 21.51 17.83 36.95C46.25 133.55 32 149.38 32 149.38s14.23 16.61 33.91 23.08c-13.98 15.17-18.42 36-18.42 36s12.38 4.36 27.38 4.36c4.37 0 8.96-.37 13.53-1.33-4.53 20.13 2.05 40.38 2.05 40.38s21.51-4.02 36.95-17.83c6.15 19.7 21.97 33.95 21.97 33.95s16.61-14.23 23.08-33.91c15.17 13.98 36 18.42 36 18.42s7.27-20.63 3.04-40.91c5.15 1.16 10.31 1.59 15.14 1.59 14.03 0 25.24-3.64 25.24-3.64s-4.02-21.51-17.83-36.95c19.7-6.15 33.95-21.97 33.95-21.97s-14.23-16.61-33.91-23.08c13.98-15.17 18.42-36 18.42-36s-12.38-4.36-27.38-4.36c-4.37 0-8.96.37-13.53 1.33 4.53-20.13-2.05-40.38-2.05-40.38s-21.51 4.02-36.95 17.83C166.45 46.25 150.63 32 150.63 32z"/><g><circle cx="150" cy="150" r="49.5" style="fill:#f7931e"/><path d="M150 101c27.02 0 49 21.98 49 49s-21.98 49-49 49-49-21.98-49-49 21.98-49 49-49m0-1c-27.61 0-50 22.39-50 50s22.39 50 50 50 50-22.39 50-50-22.39-50-50-50z"/></g></svg>